<?xml version="1.0" encoding="utf-8"?>
<svg xmlns="http://www.w3.org/2000/svg" xmlns:xlink="http://www.w3.org/1999/xlink" width="372" height="150" viewBox="0 0 1488 600">
<defs>
  <clipPath id="clip800">
    <rect x="0" y="0" width="1488" height="600"/>
  </clipPath>
</defs>
<path clip-path="url(#clip800)" d="M0 600 L1488 600 L1488 3.73035e-14 L0 3.73035e-14  Z" fill="#ffffff" fill-rule="evenodd" fill-opacity="1"/>
<defs>
  <clipPath id="clip801">
    <rect x="297" y="0" width="1043" height="600"/>
  </clipPath>
</defs>
<path clip-path="url(#clip800)" d="M167.595 461.235 L442.578 461.235 L442.578 70.0615 L167.595 70.0615  Z" fill="#ffffff" fill-rule="evenodd" fill-opacity="1"/>
<defs>
  <clipPath id="clip802">
    <rect x="167" y="70" width="276" height="392"/>
  </clipPath>
</defs>
<polyline clip-path="url(#clip800)" style="stroke:#000000; stroke-linecap:round; stroke-linejoin:round; stroke-width:4; stroke-opacity:1; fill:none" points="167.595,461.235 442.578,461.235 "/>
<polyline clip-path="url(#clip800)" style="stroke:#000000; stroke-linecap:round; stroke-linejoin:round; stroke-width:4; stroke-opacity:1; fill:none" points="195.27,461.235 195.27,480.132 "/>
<polyline clip-path="url(#clip800)" style="stroke:#000000; stroke-linecap:round; stroke-linejoin:round; stroke-width:4; stroke-opacity:1; fill:none" points="258.023,461.235 258.023,480.132 "/>
<polyline clip-path="url(#clip800)" style="stroke:#000000; stroke-linecap:round; stroke-linejoin:round; stroke-width:4; stroke-opacity:1; fill:none" points="320.775,461.235 320.775,480.132 "/>
<polyline clip-path="url(#clip800)" style="stroke:#000000; stroke-linecap:round; stroke-linejoin:round; stroke-width:4; stroke-opacity:1; fill:none" points="383.527,461.235 383.527,480.132 "/>
<g clip-path="url(#clip800)">
<text style="fill:#000000; fill-opacity:1; font-family:Arial,Helvetica Neue,Helvetica,sans-serif; font-size:48px; text-anchor:middle;" transform="rotate(0, 195.27, 521.74)" x="195.27" y="521.74">1</text>
</g>
<g clip-path="url(#clip800)">
<text style="fill:#000000; fill-opacity:1; font-family:Arial,Helvetica Neue,Helvetica,sans-serif; font-size:48px; text-anchor:middle;" transform="rotate(0, 258.023, 521.74)" x="258.023" y="521.74">3</text>
</g>
<g clip-path="url(#clip800)">
<text style="fill:#000000; fill-opacity:1; font-family:Arial,Helvetica Neue,Helvetica,sans-serif; font-size:48px; text-anchor:middle;" transform="rotate(0, 320.775, 521.74)" x="320.775" y="521.74">5</text>
</g>
<g clip-path="url(#clip800)">
<text style="fill:#000000; fill-opacity:1; font-family:Arial,Helvetica Neue,Helvetica,sans-serif; font-size:48px; text-anchor:middle;" transform="rotate(0, 383.527, 521.74)" x="383.527" y="521.74">7</text>
</g>
<polyline clip-path="url(#clip800)" style="stroke:#000000; stroke-linecap:round; stroke-linejoin:round; stroke-width:4; stroke-opacity:1; fill:none" points="167.595,461.235 167.595,70.0615 "/>
<polyline clip-path="url(#clip800)" style="stroke:#000000; stroke-linecap:round; stroke-linejoin:round; stroke-width:4; stroke-opacity:1; fill:none" points="167.595,461.235 148.698,461.235 "/>
<polyline clip-path="url(#clip800)" style="stroke:#000000; stroke-linecap:round; stroke-linejoin:round; stroke-width:4; stroke-opacity:1; fill:none" points="167.595,350.927 148.698,350.927 "/>
<polyline clip-path="url(#clip800)" style="stroke:#000000; stroke-linecap:round; stroke-linejoin:round; stroke-width:4; stroke-opacity:1; fill:none" points="167.595,240.619 148.698,240.619 "/>
<polyline clip-path="url(#clip800)" style="stroke:#000000; stroke-linecap:round; stroke-linejoin:round; stroke-width:4; stroke-opacity:1; fill:none" points="167.595,130.311 148.698,130.311 "/>
<g clip-path="url(#clip800)">
<text style="fill:#000000; fill-opacity:1; font-family:Arial,Helvetica Neue,Helvetica,sans-serif; font-size:48px; text-anchor:middle;" transform="rotate(0, 100.662, 478.735)" x="100.662" y="478.735">0.0</text>
</g>
<g clip-path="url(#clip800)">
<text style="fill:#000000; fill-opacity:1; font-family:Arial,Helvetica Neue,Helvetica,sans-serif; font-size:48px; text-anchor:middle;" transform="rotate(0, 100.662, 368.427)" x="100.662" y="368.427">0.1</text>
</g>
<g clip-path="url(#clip800)">
<text style="fill:#000000; fill-opacity:1; font-family:Arial,Helvetica Neue,Helvetica,sans-serif; font-size:48px; text-anchor:middle;" transform="rotate(0, 100.662, 258.119)" x="100.662" y="258.119">0.2</text>
</g>
<g clip-path="url(#clip800)">
<text style="fill:#000000; fill-opacity:1; font-family:Arial,Helvetica Neue,Helvetica,sans-serif; font-size:48px; text-anchor:middle;" transform="rotate(0, 100.662, 147.811)" x="100.662" y="147.811">0.3</text>
</g>
<g clip-path="url(#clip800)">
<text style="fill:#000000; fill-opacity:1; font-family:Arial,Helvetica Neue,Helvetica,sans-serif; font-size:53px; text-anchor:middle;" transform="rotate(-90, 46.2624, 265.648)" x="46.2624" y="265.648">Proportion</text>
</g>
<g clip-path="url(#clip800)">
<text style="fill:#000000; fill-opacity:1; font-family:Arial,Helvetica Neue,Helvetica,sans-serif; font-size:53px; text-anchor:middle;" transform="rotate(0, 305.087, 46.8)" x="305.087" y="46.8">Length 3</text>
</g>
<path clip-path="url(#clip802)" d="M182.72 111.119 L182.72 461.235 L207.821 461.235 L207.821 111.119 L182.72 111.119 L182.72 111.119  Z" fill="#000000" fill-rule="evenodd" fill-opacity="0"/>
<polyline clip-path="url(#clip802)" style="stroke:#808080; stroke-linecap:round; stroke-linejoin:round; stroke-width:4; stroke-opacity:1; fill:none" points="182.72,111.119 182.72,461.235 207.821,461.235 207.821,111.119 182.72,111.119 "/>
<path clip-path="url(#clip802)" d="M214.096 109.404 L214.096 461.235 L239.197 461.235 L239.197 109.404 L214.096 109.404 L214.096 109.404  Z" fill="#000000" fill-rule="evenodd" fill-opacity="0"/>
<polyline clip-path="url(#clip802)" style="stroke:#808080; stroke-linecap:round; stroke-linejoin:round; stroke-width:4; stroke-opacity:1; fill:none" points="214.096,109.404 214.096,461.235 239.197,461.235 239.197,109.404 214.096,109.404 "/>
<path clip-path="url(#clip802)" d="M245.472 73.3354 L245.472 461.235 L270.573 461.235 L270.573 73.3354 L245.472 73.3354 L245.472 73.3354  Z" fill="#000000" fill-rule="evenodd" fill-opacity="0"/>
<polyline clip-path="url(#clip802)" style="stroke:#808080; stroke-linecap:round; stroke-linejoin:round; stroke-width:4; stroke-opacity:1; fill:none" points="245.472,73.3354 245.472,461.235 270.573,461.235 270.573,73.3354 245.472,73.3354 "/>
<path clip-path="url(#clip802)" d="M276.848 456.126 L276.848 461.235 L301.949 461.235 L301.949 456.126 L276.848 456.126 L276.848 456.126  Z" fill="#000000" fill-rule="evenodd" fill-opacity="0"/>
<polyline clip-path="url(#clip802)" style="stroke:#808080; stroke-linecap:round; stroke-linejoin:round; stroke-width:4; stroke-opacity:1; fill:none" points="276.848,456.126 276.848,461.235 301.949,461.235 301.949,456.126 276.848,456.126 "/>
<path clip-path="url(#clip802)" d="M308.225 458.237 L308.225 461.235 L333.325 461.235 L333.325 458.237 L308.225 458.237 L308.225 458.237  Z" fill="#000000" fill-rule="evenodd" fill-opacity="0"/>
<polyline clip-path="url(#clip802)" style="stroke:#808080; stroke-linecap:round; stroke-linejoin:round; stroke-width:4; stroke-opacity:1; fill:none" points="308.225,458.237 308.225,461.235 333.325,461.235 333.325,458.237 308.225,458.237 "/>
<path clip-path="url(#clip802)" d="M339.601 459.002 L339.601 461.235 L364.702 461.235 L364.702 459.002 L339.601 459.002 L339.601 459.002  Z" fill="#000000" fill-rule="evenodd" fill-opacity="0"/>
<polyline clip-path="url(#clip802)" style="stroke:#808080; stroke-linecap:round; stroke-linejoin:round; stroke-width:4; stroke-opacity:1; fill:none" points="339.601,459.002 339.601,461.235 364.702,461.235 364.702,459.002 339.601,459.002 "/>
<path clip-path="url(#clip802)" d="M370.977 458.997 L370.977 461.235 L396.078 461.235 L396.078 458.997 L370.977 458.997 L370.977 458.997  Z" fill="#000000" fill-rule="evenodd" fill-opacity="0"/>
<polyline clip-path="url(#clip802)" style="stroke:#808080; stroke-linecap:round; stroke-linejoin:round; stroke-width:4; stroke-opacity:1; fill:none" points="370.977,458.997 370.977,461.235 396.078,461.235 396.078,458.997 370.977,458.997 "/>
<path clip-path="url(#clip802)" d="M402.353 460.577 L402.353 461.235 L427.454 461.235 L427.454 460.577 L402.353 460.577 L402.353 460.577  Z" fill="#000000" fill-rule="evenodd" fill-opacity="0"/>
<polyline clip-path="url(#clip802)" style="stroke:#808080; stroke-linecap:round; stroke-linejoin:round; stroke-width:4; stroke-opacity:1; fill:none" points="402.353,460.577 402.353,461.235 427.454,461.235 427.454,460.577 402.353,460.577 "/>
<circle clip-path="url(#clip802)" style="fill:#009af9; stroke:none; fill-opacity:0" cx="195.27" cy="111.119" r="2"/>
<circle clip-path="url(#clip802)" style="fill:#009af9; stroke:none; fill-opacity:0" cx="226.647" cy="109.404" r="2"/>
<circle clip-path="url(#clip802)" style="fill:#009af9; stroke:none; fill-opacity:0" cx="258.023" cy="73.3354" r="2"/>
<circle clip-path="url(#clip802)" style="fill:#009af9; stroke:none; fill-opacity:0" cx="289.399" cy="456.126" r="2"/>
<circle clip-path="url(#clip802)" style="fill:#009af9; stroke:none; fill-opacity:0" cx="320.775" cy="458.237" r="2"/>
<circle clip-path="url(#clip802)" style="fill:#009af9; stroke:none; fill-opacity:0" cx="352.151" cy="459.002" r="2"/>
<circle clip-path="url(#clip802)" style="fill:#009af9; stroke:none; fill-opacity:0" cx="383.527" cy="458.997" r="2"/>
<circle clip-path="url(#clip802)" style="fill:#009af9; stroke:none; fill-opacity:0" cx="414.903" cy="460.577" r="2"/>
<polyline clip-path="url(#clip802)" style="stroke:#808080; stroke-linecap:round; stroke-linejoin:round; stroke-width:4; stroke-opacity:1; fill:none" points="195.27,114.106 195.27,108.133 "/>
<polyline clip-path="url(#clip802)" style="stroke:#808080; stroke-linecap:round; stroke-linejoin:round; stroke-width:4; stroke-opacity:1; fill:none" points="226.647,112.161 226.647,106.646 "/>
<polyline clip-path="url(#clip802)" style="stroke:#808080; stroke-linecap:round; stroke-linejoin:round; stroke-width:4; stroke-opacity:1; fill:none" points="258.023,76.6092 258.023,70.0615 "/>
<polyline clip-path="url(#clip802)" style="stroke:#808080; stroke-linecap:round; stroke-linejoin:round; stroke-width:4; stroke-opacity:1; fill:none" points="289.399,457.901 289.399,454.352 "/>
<polyline clip-path="url(#clip802)" style="stroke:#808080; stroke-linecap:round; stroke-linejoin:round; stroke-width:4; stroke-opacity:1; fill:none" points="320.775,459.764 320.775,456.71 "/>
<polyline clip-path="url(#clip802)" style="stroke:#808080; stroke-linecap:round; stroke-linejoin:round; stroke-width:4; stroke-opacity:1; fill:none" points="352.151,460.413 352.151,457.591 "/>
<polyline clip-path="url(#clip802)" style="stroke:#808080; stroke-linecap:round; stroke-linejoin:round; stroke-width:4; stroke-opacity:1; fill:none" points="383.527,460.449 383.527,457.545 "/>
<polyline clip-path="url(#clip802)" style="stroke:#808080; stroke-linecap:round; stroke-linejoin:round; stroke-width:4; stroke-opacity:1; fill:none" points="414.903,461.031 414.903,460.123 "/>
<circle clip-path="url(#clip802)" style="fill:#808080; stroke:none; fill-opacity:1" cx="195.27" cy="114.106" r="2"/>
<circle clip-path="url(#clip802)" style="fill:#808080; stroke:none; fill-opacity:1" cx="195.27" cy="108.133" r="2"/>
<circle clip-path="url(#clip802)" style="fill:#808080; stroke:none; fill-opacity:1" cx="226.647" cy="112.161" r="2"/>
<circle clip-path="url(#clip802)" style="fill:#808080; stroke:none; fill-opacity:1" cx="226.647" cy="106.646" r="2"/>
<circle clip-path="url(#clip802)" style="fill:#808080; stroke:none; fill-opacity:1" cx="258.023" cy="76.6092" r="2"/>
<circle clip-path="url(#clip802)" style="fill:#808080; stroke:none; fill-opacity:1" cx="258.023" cy="70.0615" r="2"/>
<circle clip-path="url(#clip802)" style="fill:#808080; stroke:none; fill-opacity:1" cx="289.399" cy="457.901" r="2"/>
<circle clip-path="url(#clip802)" style="fill:#808080; stroke:none; fill-opacity:1" cx="289.399" cy="454.352" r="2"/>
<circle clip-path="url(#clip802)" style="fill:#808080; stroke:none; fill-opacity:1" cx="320.775" cy="459.764" r="2"/>
<circle clip-path="url(#clip802)" style="fill:#808080; stroke:none; fill-opacity:1" cx="320.775" cy="456.71" r="2"/>
<circle clip-path="url(#clip802)" style="fill:#808080; stroke:none; fill-opacity:1" cx="352.151" cy="460.413" r="2"/>
<circle clip-path="url(#clip802)" style="fill:#808080; stroke:none; fill-opacity:1" cx="352.151" cy="457.591" r="2"/>
<circle clip-path="url(#clip802)" style="fill:#808080; stroke:none; fill-opacity:1" cx="383.527" cy="460.449" r="2"/>
<circle clip-path="url(#clip802)" style="fill:#808080; stroke:none; fill-opacity:1" cx="383.527" cy="457.545" r="2"/>
<circle clip-path="url(#clip802)" style="fill:#808080; stroke:none; fill-opacity:1" cx="414.903" cy="461.031" r="2"/>
<circle clip-path="url(#clip802)" style="fill:#808080; stroke:none; fill-opacity:1" cx="414.903" cy="460.123" r="2"/>
<polyline clip-path="url(#clip802)" style="stroke:#ff0000; stroke-linecap:round; stroke-linejoin:round; stroke-width:4; stroke-opacity:1; fill:none" stroke-dasharray="16, 10" points="258.023,461.235 258.023,93.5417 "/>
<polyline clip-path="url(#clip802)" style="stroke:#ff0000; stroke-linecap:round; stroke-linejoin:round; stroke-width:4; stroke-opacity:1; fill:none" stroke-dasharray="16, 10" points="179.582,93.5417 258.023,93.5417 "/>
<path clip-path="url(#clip800)" d="M505.571 461.235 L780.554 461.235 L780.554 70.0615 L505.571 70.0615  Z" fill="#ffffff" fill-rule="evenodd" fill-opacity="1"/>
<defs>
  <clipPath id="clip803">
    <rect x="505" y="70" width="276" height="392"/>
  </clipPath>
</defs>
<polyline clip-path="url(#clip800)" style="stroke:#000000; stroke-linecap:round; stroke-linejoin:round; stroke-width:4; stroke-opacity:1; fill:none" points="505.571,461.235 780.554,461.235 "/>
<polyline clip-path="url(#clip800)" style="stroke:#000000; stroke-linecap:round; stroke-linejoin:round; stroke-width:4; stroke-opacity:1; fill:none" points="533.246,461.235 533.246,480.132 "/>
<polyline clip-path="url(#clip800)" style="stroke:#000000; stroke-linecap:round; stroke-linejoin:round; stroke-width:4; stroke-opacity:1; fill:none" points="595.998,461.235 595.998,480.132 "/>
<polyline clip-path="url(#clip800)" style="stroke:#000000; stroke-linecap:round; stroke-linejoin:round; stroke-width:4; stroke-opacity:1; fill:none" points="658.75,461.235 658.75,480.132 "/>
<polyline clip-path="url(#clip800)" style="stroke:#000000; stroke-linecap:round; stroke-linejoin:round; stroke-width:4; stroke-opacity:1; fill:none" points="721.502,461.235 721.502,480.132 "/>
<g clip-path="url(#clip800)">
<text style="fill:#000000; fill-opacity:1; font-family:Arial,Helvetica Neue,Helvetica,sans-serif; font-size:48px; text-anchor:middle;" transform="rotate(0, 533.246, 521.74)" x="533.246" y="521.74">1</text>
</g>
<g clip-path="url(#clip800)">
<text style="fill:#000000; fill-opacity:1; font-family:Arial,Helvetica Neue,Helvetica,sans-serif; font-size:48px; text-anchor:middle;" transform="rotate(0, 595.998, 521.74)" x="595.998" y="521.74">3</text>
</g>
<g clip-path="url(#clip800)">
<text style="fill:#000000; fill-opacity:1; font-family:Arial,Helvetica Neue,Helvetica,sans-serif; font-size:48px; text-anchor:middle;" transform="rotate(0, 658.75, 521.74)" x="658.75" y="521.74">5</text>
</g>
<g clip-path="url(#clip800)">
<text style="fill:#000000; fill-opacity:1; font-family:Arial,Helvetica Neue,Helvetica,sans-serif; font-size:48px; text-anchor:middle;" transform="rotate(0, 721.502, 521.74)" x="721.502" y="521.74">7</text>
</g>
<polyline clip-path="url(#clip800)" style="stroke:#000000; stroke-linecap:round; stroke-linejoin:round; stroke-width:4; stroke-opacity:1; fill:none" points="505.571,461.235 505.571,70.0615 "/>
<g clip-path="url(#clip800)">
<text style="fill:#000000; fill-opacity:1; font-family:Arial,Helvetica Neue,Helvetica,sans-serif; font-size:53px; text-anchor:middle;" transform="rotate(0, 643.062, 46.8)" x="643.062" y="46.8">Length 4</text>
</g>
<path clip-path="url(#clip803)" d="M520.695 252.398 L520.695 461.235 L545.796 461.235 L545.796 252.398 L520.695 252.398 L520.695 252.398  Z" fill="#000000" fill-rule="evenodd" fill-opacity="0"/>
<polyline clip-path="url(#clip803)" style="stroke:#808080; stroke-linecap:round; stroke-linejoin:round; stroke-width:4; stroke-opacity:1; fill:none" points="520.695,252.398 520.695,461.235 545.796,461.235 545.796,252.398 520.695,252.398 "/>
<path clip-path="url(#clip803)" d="M552.071 247.441 L552.071 461.235 L577.172 461.235 L577.172 247.441 L552.071 247.441 L552.071 247.441  Z" fill="#000000" fill-rule="evenodd" fill-opacity="0"/>
<polyline clip-path="url(#clip803)" style="stroke:#808080; stroke-linecap:round; stroke-linejoin:round; stroke-width:4; stroke-opacity:1; fill:none" points="552.071,247.441 552.071,461.235 577.172,461.235 577.172,247.441 552.071,247.441 "/>
<path clip-path="url(#clip803)" d="M583.447 242.284 L583.447 461.235 L608.548 461.235 L608.548 242.284 L583.447 242.284 L583.447 242.284  Z" fill="#000000" fill-rule="evenodd" fill-opacity="0"/>
<polyline clip-path="url(#clip803)" style="stroke:#808080; stroke-linecap:round; stroke-linejoin:round; stroke-width:4; stroke-opacity:1; fill:none" points="583.447,242.284 583.447,461.235 608.548,461.235 608.548,242.284 583.447,242.284 "/>
<path clip-path="url(#clip803)" d="M614.824 202.292 L614.824 461.235 L639.924 461.235 L639.924 202.292 L614.824 202.292 L614.824 202.292  Z" fill="#000000" fill-rule="evenodd" fill-opacity="0"/>
<polyline clip-path="url(#clip803)" style="stroke:#808080; stroke-linecap:round; stroke-linejoin:round; stroke-width:4; stroke-opacity:1; fill:none" points="614.824,202.292 614.824,461.235 639.924,461.235 639.924,202.292 614.824,202.292 "/>
<path clip-path="url(#clip803)" d="M646.2 398.686 L646.2 461.235 L671.301 461.235 L671.301 398.686 L646.2 398.686 L646.2 398.686  Z" fill="#000000" fill-rule="evenodd" fill-opacity="0"/>
<polyline clip-path="url(#clip803)" style="stroke:#808080; stroke-linecap:round; stroke-linejoin:round; stroke-width:4; stroke-opacity:1; fill:none" points="646.2,398.686 646.2,461.235 671.301,461.235 671.301,398.686 646.2,398.686 "/>
<path clip-path="url(#clip803)" d="M677.576 400.356 L677.576 461.235 L702.677 461.235 L702.677 400.356 L677.576 400.356 L677.576 400.356  Z" fill="#000000" fill-rule="evenodd" fill-opacity="0"/>
<polyline clip-path="url(#clip803)" style="stroke:#808080; stroke-linecap:round; stroke-linejoin:round; stroke-width:4; stroke-opacity:1; fill:none" points="677.576,400.356 677.576,461.235 702.677,461.235 702.677,400.356 677.576,400.356 "/>
<path clip-path="url(#clip803)" d="M708.952 397.925 L708.952 461.235 L734.053 461.235 L734.053 397.925 L708.952 397.925 L708.952 397.925  Z" fill="#000000" fill-rule="evenodd" fill-opacity="0"/>
<polyline clip-path="url(#clip803)" style="stroke:#808080; stroke-linecap:round; stroke-linejoin:round; stroke-width:4; stroke-opacity:1; fill:none" points="708.952,397.925 708.952,461.235 734.053,461.235 734.053,397.925 708.952,397.925 "/>
<path clip-path="url(#clip803)" d="M740.328 445.415 L740.328 461.235 L765.429 461.235 L765.429 445.415 L740.328 445.415 L740.328 445.415  Z" fill="#000000" fill-rule="evenodd" fill-opacity="0"/>
<polyline clip-path="url(#clip803)" style="stroke:#808080; stroke-linecap:round; stroke-linejoin:round; stroke-width:4; stroke-opacity:1; fill:none" points="740.328,445.415 740.328,461.235 765.429,461.235 765.429,445.415 740.328,445.415 "/>
<circle clip-path="url(#clip803)" style="fill:#009af9; stroke:none; fill-opacity:0" cx="533.246" cy="252.398" r="2"/>
<circle clip-path="url(#clip803)" style="fill:#009af9; stroke:none; fill-opacity:0" cx="564.622" cy="247.441" r="2"/>
<circle clip-path="url(#clip803)" style="fill:#009af9; stroke:none; fill-opacity:0" cx="595.998" cy="242.284" r="2"/>
<circle clip-path="url(#clip803)" style="fill:#009af9; stroke:none; fill-opacity:0" cx="627.374" cy="202.292" r="2"/>
<circle clip-path="url(#clip803)" style="fill:#009af9; stroke:none; fill-opacity:0" cx="658.75" cy="398.686" r="2"/>
<circle clip-path="url(#clip803)" style="fill:#009af9; stroke:none; fill-opacity:0" cx="690.126" cy="400.356" r="2"/>
<circle clip-path="url(#clip803)" style="fill:#009af9; stroke:none; fill-opacity:0" cx="721.502" cy="397.925" r="2"/>
<circle clip-path="url(#clip803)" style="fill:#009af9; stroke:none; fill-opacity:0" cx="752.879" cy="445.415" r="2"/>
<polyline clip-path="url(#clip803)" style="stroke:#808080; stroke-linecap:round; stroke-linejoin:round; stroke-width:4; stroke-opacity:1; fill:none" points="533.246,256.764 533.246,248.032 "/>
<polyline clip-path="url(#clip803)" style="stroke:#808080; stroke-linecap:round; stroke-linejoin:round; stroke-width:4; stroke-opacity:1; fill:none" points="564.622,251.935 564.622,242.947 "/>
<polyline clip-path="url(#clip803)" style="stroke:#808080; stroke-linecap:round; stroke-linejoin:round; stroke-width:4; stroke-opacity:1; fill:none" points="595.998,246.782 595.998,237.787 "/>
<polyline clip-path="url(#clip803)" style="stroke:#808080; stroke-linecap:round; stroke-linejoin:round; stroke-width:4; stroke-opacity:1; fill:none" points="627.374,205.629 627.374,198.956 "/>
<polyline clip-path="url(#clip803)" style="stroke:#808080; stroke-linecap:round; stroke-linejoin:round; stroke-width:4; stroke-opacity:1; fill:none" points="658.75,403.049 658.75,394.323 "/>
<polyline clip-path="url(#clip803)" style="stroke:#808080; stroke-linecap:round; stroke-linejoin:round; stroke-width:4; stroke-opacity:1; fill:none" points="690.126,405.03 690.126,395.683 "/>
<polyline clip-path="url(#clip803)" style="stroke:#808080; stroke-linecap:round; stroke-linejoin:round; stroke-width:4; stroke-opacity:1; fill:none" points="721.502,404.019 721.502,391.831 "/>
<polyline clip-path="url(#clip803)" style="stroke:#808080; stroke-linecap:round; stroke-linejoin:round; stroke-width:4; stroke-opacity:1; fill:none" points="752.879,447.564 752.879,443.265 "/>
<circle clip-path="url(#clip803)" style="fill:#808080; stroke:none; fill-opacity:1" cx="533.246" cy="256.764" r="2"/>
<circle clip-path="url(#clip803)" style="fill:#808080; stroke:none; fill-opacity:1" cx="533.246" cy="248.032" r="2"/>
<circle clip-path="url(#clip803)" style="fill:#808080; stroke:none; fill-opacity:1" cx="564.622" cy="251.935" r="2"/>
<circle clip-path="url(#clip803)" style="fill:#808080; stroke:none; fill-opacity:1" cx="564.622" cy="242.947" r="2"/>
<circle clip-path="url(#clip803)" style="fill:#808080; stroke:none; fill-opacity:1" cx="595.998" cy="246.782" r="2"/>
<circle clip-path="url(#clip803)" style="fill:#808080; stroke:none; fill-opacity:1" cx="595.998" cy="237.787" r="2"/>
<circle clip-path="url(#clip803)" style="fill:#808080; stroke:none; fill-opacity:1" cx="627.374" cy="205.629" r="2"/>
<circle clip-path="url(#clip803)" style="fill:#808080; stroke:none; fill-opacity:1" cx="627.374" cy="198.956" r="2"/>
<circle clip-path="url(#clip803)" style="fill:#808080; stroke:none; fill-opacity:1" cx="658.75" cy="403.049" r="2"/>
<circle clip-path="url(#clip803)" style="fill:#808080; stroke:none; fill-opacity:1" cx="658.75" cy="394.323" r="2"/>
<circle clip-path="url(#clip803)" style="fill:#808080; stroke:none; fill-opacity:1" cx="690.126" cy="405.03" r="2"/>
<circle clip-path="url(#clip803)" style="fill:#808080; stroke:none; fill-opacity:1" cx="690.126" cy="395.683" r="2"/>
<circle clip-path="url(#clip803)" style="fill:#808080; stroke:none; fill-opacity:1" cx="721.502" cy="404.019" r="2"/>
<circle clip-path="url(#clip803)" style="fill:#808080; stroke:none; fill-opacity:1" cx="721.502" cy="391.831" r="2"/>
<circle clip-path="url(#clip803)" style="fill:#808080; stroke:none; fill-opacity:1" cx="752.879" cy="447.564" r="2"/>
<circle clip-path="url(#clip803)" style="fill:#808080; stroke:none; fill-opacity:1" cx="752.879" cy="443.265" r="2"/>
<polyline clip-path="url(#clip803)" style="stroke:#ff0000; stroke-linecap:round; stroke-linejoin:round; stroke-width:4; stroke-opacity:1; fill:none" stroke-dasharray="16, 10" points="627.374,461.235 627.374,185.465 "/>
<polyline clip-path="url(#clip803)" style="stroke:#ff0000; stroke-linecap:round; stroke-linejoin:round; stroke-width:4; stroke-opacity:1; fill:none" stroke-dasharray="16, 10" points="517.558,185.465 627.374,185.465 "/>
<path clip-path="url(#clip800)" d="M843.546 461.235 L1118.53 461.235 L1118.53 70.0615 L843.546 70.0615  Z" fill="#ffffff" fill-rule="evenodd" fill-opacity="1"/>
<defs>
  <clipPath id="clip804">
    <rect x="843" y="70" width="276" height="392"/>
  </clipPath>
</defs>
<polyline clip-path="url(#clip800)" style="stroke:#000000; stroke-linecap:round; stroke-linejoin:round; stroke-width:4; stroke-opacity:1; fill:none" points="843.546,461.235 1118.53,461.235 "/>
<polyline clip-path="url(#clip800)" style="stroke:#000000; stroke-linecap:round; stroke-linejoin:round; stroke-width:4; stroke-opacity:1; fill:none" points="871.221,461.235 871.221,480.132 "/>
<polyline clip-path="url(#clip800)" style="stroke:#000000; stroke-linecap:round; stroke-linejoin:round; stroke-width:4; stroke-opacity:1; fill:none" points="933.973,461.235 933.973,480.132 "/>
<polyline clip-path="url(#clip800)" style="stroke:#000000; stroke-linecap:round; stroke-linejoin:round; stroke-width:4; stroke-opacity:1; fill:none" points="996.725,461.235 996.725,480.132 "/>
<polyline clip-path="url(#clip800)" style="stroke:#000000; stroke-linecap:round; stroke-linejoin:round; stroke-width:4; stroke-opacity:1; fill:none" points="1059.48,461.235 1059.48,480.132 "/>
<g clip-path="url(#clip800)">
<text style="fill:#000000; fill-opacity:1; font-family:Arial,Helvetica Neue,Helvetica,sans-serif; font-size:48px; text-anchor:middle;" transform="rotate(0, 871.221, 521.74)" x="871.221" y="521.74">1</text>
</g>
<g clip-path="url(#clip800)">
<text style="fill:#000000; fill-opacity:1; font-family:Arial,Helvetica Neue,Helvetica,sans-serif; font-size:48px; text-anchor:middle;" transform="rotate(0, 933.973, 521.74)" x="933.973" y="521.74">3</text>
</g>
<g clip-path="url(#clip800)">
<text style="fill:#000000; fill-opacity:1; font-family:Arial,Helvetica Neue,Helvetica,sans-serif; font-size:48px; text-anchor:middle;" transform="rotate(0, 996.725, 521.74)" x="996.725" y="521.74">5</text>
</g>
<g clip-path="url(#clip800)">
<text style="fill:#000000; fill-opacity:1; font-family:Arial,Helvetica Neue,Helvetica,sans-serif; font-size:48px; text-anchor:middle;" transform="rotate(0, 1059.48, 521.74)" x="1059.48" y="521.74">7</text>
</g>
<polyline clip-path="url(#clip800)" style="stroke:#000000; stroke-linecap:round; stroke-linejoin:round; stroke-width:4; stroke-opacity:1; fill:none" points="843.546,461.235 843.546,70.0615 "/>
<g clip-path="url(#clip800)">
<text style="fill:#000000; fill-opacity:1; font-family:Arial,Helvetica Neue,Helvetica,sans-serif; font-size:53px; text-anchor:middle;" transform="rotate(0, 981.037, 46.8)" x="981.037" y="46.8">Length 5</text>
</g>
<path clip-path="url(#clip804)" d="M858.67 308.666 L858.67 461.235 L883.771 461.235 L883.771 308.666 L858.67 308.666 L858.67 308.666  Z" fill="#000000" fill-rule="evenodd" fill-opacity="0"/>
<polyline clip-path="url(#clip804)" style="stroke:#808080; stroke-linecap:round; stroke-linejoin:round; stroke-width:4; stroke-opacity:1; fill:none" points="858.67,308.666 858.67,461.235 883.771,461.235 883.771,308.666 858.67,308.666 "/>
<path clip-path="url(#clip804)" d="M890.046 306.448 L890.046 461.235 L915.147 461.235 L915.147 306.448 L890.046 306.448 L890.046 306.448  Z" fill="#000000" fill-rule="evenodd" fill-opacity="0"/>
<polyline clip-path="url(#clip804)" style="stroke:#808080; stroke-linecap:round; stroke-linejoin:round; stroke-width:4; stroke-opacity:1; fill:none" points="890.046,306.448 890.046,461.235 915.147,461.235 915.147,306.448 890.046,306.448 "/>
<path clip-path="url(#clip804)" d="M921.423 302.747 L921.423 461.235 L946.523 461.235 L946.523 302.747 L921.423 302.747 L921.423 302.747  Z" fill="#000000" fill-rule="evenodd" fill-opacity="0"/>
<polyline clip-path="url(#clip804)" style="stroke:#808080; stroke-linecap:round; stroke-linejoin:round; stroke-width:4; stroke-opacity:1; fill:none" points="921.423,302.747 921.423,461.235 946.523,461.235 946.523,302.747 921.423,302.747 "/>
<path clip-path="url(#clip804)" d="M952.799 302.026 L952.799 461.235 L977.9 461.235 L977.9 302.026 L952.799 302.026 L952.799 302.026  Z" fill="#000000" fill-rule="evenodd" fill-opacity="0"/>
<polyline clip-path="url(#clip804)" style="stroke:#808080; stroke-linecap:round; stroke-linejoin:round; stroke-width:4; stroke-opacity:1; fill:none" points="952.799,302.026 952.799,461.235 977.9,461.235 977.9,302.026 952.799,302.026 "/>
<path clip-path="url(#clip804)" d="M984.175 238.241 L984.175 461.235 L1009.28 461.235 L1009.28 238.241 L984.175 238.241 L984.175 238.241  Z" fill="#000000" fill-rule="evenodd" fill-opacity="0"/>
<polyline clip-path="url(#clip804)" style="stroke:#808080; stroke-linecap:round; stroke-linejoin:round; stroke-width:4; stroke-opacity:1; fill:none" points="984.175,238.241 984.175,461.235 1009.28,461.235 1009.28,238.241 984.175,238.241 "/>
<path clip-path="url(#clip804)" d="M1015.55 343.706 L1015.55 461.235 L1040.65 461.235 L1040.65 343.706 L1015.55 343.706 L1015.55 343.706  Z" fill="#000000" fill-rule="evenodd" fill-opacity="0"/>
<polyline clip-path="url(#clip804)" style="stroke:#808080; stroke-linecap:round; stroke-linejoin:round; stroke-width:4; stroke-opacity:1; fill:none" points="1015.55,343.706 1015.55,461.235 1040.65,461.235 1040.65,343.706 1015.55,343.706 "/>
<path clip-path="url(#clip804)" d="M1046.93 356.51 L1046.93 461.235 L1072.03 461.235 L1072.03 356.51 L1046.93 356.51 L1046.93 356.51  Z" fill="#000000" fill-rule="evenodd" fill-opacity="0"/>
<polyline clip-path="url(#clip804)" style="stroke:#808080; stroke-linecap:round; stroke-linejoin:round; stroke-width:4; stroke-opacity:1; fill:none" points="1046.93,356.51 1046.93,461.235 1072.03,461.235 1072.03,356.51 1046.93,356.51 "/>
<path clip-path="url(#clip804)" d="M1078.3 428.455 L1078.3 461.235 L1103.4 461.235 L1103.4 428.455 L1078.3 428.455 L1078.3 428.455  Z" fill="#000000" fill-rule="evenodd" fill-opacity="0"/>
<polyline clip-path="url(#clip804)" style="stroke:#808080; stroke-linecap:round; stroke-linejoin:round; stroke-width:4; stroke-opacity:1; fill:none" points="1078.3,428.455 1078.3,461.235 1103.4,461.235 1103.4,428.455 1078.3,428.455 "/>
<circle clip-path="url(#clip804)" style="fill:#009af9; stroke:none; fill-opacity:0" cx="871.221" cy="308.666" r="2"/>
<circle clip-path="url(#clip804)" style="fill:#009af9; stroke:none; fill-opacity:0" cx="902.597" cy="306.448" r="2"/>
<circle clip-path="url(#clip804)" style="fill:#009af9; stroke:none; fill-opacity:0" cx="933.973" cy="302.747" r="2"/>
<circle clip-path="url(#clip804)" style="fill:#009af9; stroke:none; fill-opacity:0" cx="965.349" cy="302.026" r="2"/>
<circle clip-path="url(#clip804)" style="fill:#009af9; stroke:none; fill-opacity:0" cx="996.725" cy="238.241" r="2"/>
<circle clip-path="url(#clip804)" style="fill:#009af9; stroke:none; fill-opacity:0" cx="1028.1" cy="343.706" r="2"/>
<circle clip-path="url(#clip804)" style="fill:#009af9; stroke:none; fill-opacity:0" cx="1059.48" cy="356.51" r="2"/>
<circle clip-path="url(#clip804)" style="fill:#009af9; stroke:none; fill-opacity:0" cx="1090.85" cy="428.455" r="2"/>
<polyline clip-path="url(#clip804)" style="stroke:#808080; stroke-linecap:round; stroke-linejoin:round; stroke-width:4; stroke-opacity:1; fill:none" points="871.221,311.87 871.221,305.461 "/>
<polyline clip-path="url(#clip804)" style="stroke:#808080; stroke-linecap:round; stroke-linejoin:round; stroke-width:4; stroke-opacity:1; fill:none" points="902.597,309.662 902.597,303.234 "/>
<polyline clip-path="url(#clip804)" style="stroke:#808080; stroke-linecap:round; stroke-linejoin:round; stroke-width:4; stroke-opacity:1; fill:none" points="933.973,305.929 933.973,299.564 "/>
<polyline clip-path="url(#clip804)" style="stroke:#808080; stroke-linecap:round; stroke-linejoin:round; stroke-width:4; stroke-opacity:1; fill:none" points="965.349,305.1 965.349,298.952 "/>
<polyline clip-path="url(#clip804)" style="stroke:#808080; stroke-linecap:round; stroke-linejoin:round; stroke-width:4; stroke-opacity:1; fill:none" points="996.725,240.581 996.725,235.901 "/>
<polyline clip-path="url(#clip804)" style="stroke:#808080; stroke-linecap:round; stroke-linejoin:round; stroke-width:4; stroke-opacity:1; fill:none" points="1028.1,349.141 1028.1,338.27 "/>
<polyline clip-path="url(#clip804)" style="stroke:#808080; stroke-linecap:round; stroke-linejoin:round; stroke-width:4; stroke-opacity:1; fill:none" points="1059.48,363.056 1059.48,349.963 "/>
<polyline clip-path="url(#clip804)" style="stroke:#808080; stroke-linecap:round; stroke-linejoin:round; stroke-width:4; stroke-opacity:1; fill:none" points="1090.85,431.254 1090.85,425.657 "/>
<circle clip-path="url(#clip804)" style="fill:#808080; stroke:none; fill-opacity:1" cx="871.221" cy="311.87" r="2"/>
<circle clip-path="url(#clip804)" style="fill:#808080; stroke:none; fill-opacity:1" cx="871.221" cy="305.461" r="2"/>
<circle clip-path="url(#clip804)" style="fill:#808080; stroke:none; fill-opacity:1" cx="902.597" cy="309.662" r="2"/>
<circle clip-path="url(#clip804)" style="fill:#808080; stroke:none; fill-opacity:1" cx="902.597" cy="303.234" r="2"/>
<circle clip-path="url(#clip804)" style="fill:#808080; stroke:none; fill-opacity:1" cx="933.973" cy="305.929" r="2"/>
<circle clip-path="url(#clip804)" style="fill:#808080; stroke:none; fill-opacity:1" cx="933.973" cy="299.564" r="2"/>
<circle clip-path="url(#clip804)" style="fill:#808080; stroke:none; fill-opacity:1" cx="965.349" cy="305.1" r="2"/>
<circle clip-path="url(#clip804)" style="fill:#808080; stroke:none; fill-opacity:1" cx="965.349" cy="298.952" r="2"/>
<circle clip-path="url(#clip804)" style="fill:#808080; stroke:none; fill-opacity:1" cx="996.725" cy="240.581" r="2"/>
<circle clip-path="url(#clip804)" style="fill:#808080; stroke:none; fill-opacity:1" cx="996.725" cy="235.901" r="2"/>
<circle clip-path="url(#clip804)" style="fill:#808080; stroke:none; fill-opacity:1" cx="1028.1" cy="349.141" r="2"/>
<circle clip-path="url(#clip804)" style="fill:#808080; stroke:none; fill-opacity:1" cx="1028.1" cy="338.27" r="2"/>
<circle clip-path="url(#clip804)" style="fill:#808080; stroke:none; fill-opacity:1" cx="1059.48" cy="363.056" r="2"/>
<circle clip-path="url(#clip804)" style="fill:#808080; stroke:none; fill-opacity:1" cx="1059.48" cy="349.963" r="2"/>
<circle clip-path="url(#clip804)" style="fill:#808080; stroke:none; fill-opacity:1" cx="1090.85" cy="431.254" r="2"/>
<circle clip-path="url(#clip804)" style="fill:#808080; stroke:none; fill-opacity:1" cx="1090.85" cy="425.657" r="2"/>
<polyline clip-path="url(#clip804)" style="stroke:#ff0000; stroke-linecap:round; stroke-linejoin:round; stroke-width:4; stroke-opacity:1; fill:none" stroke-dasharray="16, 10" points="996.725,461.235 996.725,240.619 "/>
<polyline clip-path="url(#clip804)" style="stroke:#ff0000; stroke-linecap:round; stroke-linejoin:round; stroke-width:4; stroke-opacity:1; fill:none" stroke-dasharray="16, 10" points="855.533,240.619 996.725,240.619 "/>
<path clip-path="url(#clip800)" d="M1181.52 461.235 L1456.5 461.235 L1456.5 70.0615 L1181.52 70.0615  Z" fill="#ffffff" fill-rule="evenodd" fill-opacity="1"/>
<defs>
  <clipPath id="clip805">
    <rect x="1181" y="70" width="276" height="392"/>
  </clipPath>
</defs>
<polyline clip-path="url(#clip800)" style="stroke:#000000; stroke-linecap:round; stroke-linejoin:round; stroke-width:4; stroke-opacity:1; fill:none" points="1181.52,461.235 1456.5,461.235 "/>
<polyline clip-path="url(#clip800)" style="stroke:#000000; stroke-linecap:round; stroke-linejoin:round; stroke-width:4; stroke-opacity:1; fill:none" points="1209.2,461.235 1209.2,480.132 "/>
<polyline clip-path="url(#clip800)" style="stroke:#000000; stroke-linecap:round; stroke-linejoin:round; stroke-width:4; stroke-opacity:1; fill:none" points="1271.95,461.235 1271.95,480.132 "/>
<polyline clip-path="url(#clip800)" style="stroke:#000000; stroke-linecap:round; stroke-linejoin:round; stroke-width:4; stroke-opacity:1; fill:none" points="1334.7,461.235 1334.7,480.132 "/>
<polyline clip-path="url(#clip800)" style="stroke:#000000; stroke-linecap:round; stroke-linejoin:round; stroke-width:4; stroke-opacity:1; fill:none" points="1397.45,461.235 1397.45,480.132 "/>
<g clip-path="url(#clip800)">
<text style="fill:#000000; fill-opacity:1; font-family:Arial,Helvetica Neue,Helvetica,sans-serif; font-size:48px; text-anchor:middle;" transform="rotate(0, 1209.2, 521.74)" x="1209.2" y="521.74">1</text>
</g>
<g clip-path="url(#clip800)">
<text style="fill:#000000; fill-opacity:1; font-family:Arial,Helvetica Neue,Helvetica,sans-serif; font-size:48px; text-anchor:middle;" transform="rotate(0, 1271.95, 521.74)" x="1271.95" y="521.74">3</text>
</g>
<g clip-path="url(#clip800)">
<text style="fill:#000000; fill-opacity:1; font-family:Arial,Helvetica Neue,Helvetica,sans-serif; font-size:48px; text-anchor:middle;" transform="rotate(0, 1334.7, 521.74)" x="1334.7" y="521.74">5</text>
</g>
<g clip-path="url(#clip800)">
<text style="fill:#000000; fill-opacity:1; font-family:Arial,Helvetica Neue,Helvetica,sans-serif; font-size:48px; text-anchor:middle;" transform="rotate(0, 1397.45, 521.74)" x="1397.45" y="521.74">7</text>
</g>
<polyline clip-path="url(#clip800)" style="stroke:#000000; stroke-linecap:round; stroke-linejoin:round; stroke-width:4; stroke-opacity:1; fill:none" points="1181.52,461.235 1181.52,70.0615 "/>
<g clip-path="url(#clip800)">
<text style="fill:#000000; fill-opacity:1; font-family:Arial,Helvetica Neue,Helvetica,sans-serif; font-size:53px; text-anchor:middle;" transform="rotate(0, 1319.01, 46.8)" x="1319.01" y="46.8">Length 6</text>
</g>
<path clip-path="url(#clip805)" d="M1196.65 333.594 L1196.65 461.235 L1221.75 461.235 L1221.75 333.594 L1196.65 333.594 L1196.65 333.594  Z" fill="#000000" fill-rule="evenodd" fill-opacity="0"/>
<polyline clip-path="url(#clip805)" style="stroke:#808080; stroke-linecap:round; stroke-linejoin:round; stroke-width:4; stroke-opacity:1; fill:none" points="1196.65,333.594 1196.65,461.235 1221.75,461.235 1221.75,333.594 1196.65,333.594 "/>
<path clip-path="url(#clip805)" d="M1228.02 331.623 L1228.02 461.235 L1253.12 461.235 L1253.12 331.623 L1228.02 331.623 L1228.02 331.623  Z" fill="#000000" fill-rule="evenodd" fill-opacity="0"/>
<polyline clip-path="url(#clip805)" style="stroke:#808080; stroke-linecap:round; stroke-linejoin:round; stroke-width:4; stroke-opacity:1; fill:none" points="1228.02,331.623 1228.02,461.235 1253.12,461.235 1253.12,331.623 1228.02,331.623 "/>
<path clip-path="url(#clip805)" d="M1259.4 329.539 L1259.4 461.235 L1284.5 461.235 L1284.5 329.539 L1259.4 329.539 L1259.4 329.539  Z" fill="#000000" fill-rule="evenodd" fill-opacity="0"/>
<polyline clip-path="url(#clip805)" style="stroke:#808080; stroke-linecap:round; stroke-linejoin:round; stroke-width:4; stroke-opacity:1; fill:none" points="1259.4,329.539 1259.4,461.235 1284.5,461.235 1284.5,329.539 1259.4,329.539 "/>
<path clip-path="url(#clip805)" d="M1290.77 325.379 L1290.77 461.235 L1315.87 461.235 L1315.87 325.379 L1290.77 325.379 L1290.77 325.379  Z" fill="#000000" fill-rule="evenodd" fill-opacity="0"/>
<polyline clip-path="url(#clip805)" style="stroke:#808080; stroke-linecap:round; stroke-linejoin:round; stroke-width:4; stroke-opacity:1; fill:none" points="1290.77,325.379 1290.77,461.235 1315.87,461.235 1315.87,325.379 1290.77,325.379 "/>
<path clip-path="url(#clip805)" d="M1322.15 301.564 L1322.15 461.235 L1347.25 461.235 L1347.25 301.564 L1322.15 301.564 L1322.15 301.564  Z" fill="#000000" fill-rule="evenodd" fill-opacity="0"/>
<polyline clip-path="url(#clip805)" style="stroke:#808080; stroke-linecap:round; stroke-linejoin:round; stroke-width:4; stroke-opacity:1; fill:none" points="1322.15,301.564 1322.15,461.235 1347.25,461.235 1347.25,301.564 1322.15,301.564 "/>
<path clip-path="url(#clip805)" d="M1353.53 225.145 L1353.53 461.235 L1378.63 461.235 L1378.63 225.145 L1353.53 225.145 L1353.53 225.145  Z" fill="#000000" fill-rule="evenodd" fill-opacity="0"/>
<polyline clip-path="url(#clip805)" style="stroke:#808080; stroke-linecap:round; stroke-linejoin:round; stroke-width:4; stroke-opacity:1; fill:none" points="1353.53,225.145 1353.53,461.235 1378.63,461.235 1378.63,225.145 1353.53,225.145 "/>
<path clip-path="url(#clip805)" d="M1384.9 307.068 L1384.9 461.235 L1410 461.235 L1410 307.068 L1384.9 307.068 L1384.9 307.068  Z" fill="#000000" fill-rule="evenodd" fill-opacity="0"/>
<polyline clip-path="url(#clip805)" style="stroke:#808080; stroke-linecap:round; stroke-linejoin:round; stroke-width:4; stroke-opacity:1; fill:none" points="1384.9,307.068 1384.9,461.235 1410,461.235 1410,307.068 1384.9,307.068 "/>
<path clip-path="url(#clip805)" d="M1416.28 432.887 L1416.28 461.235 L1441.38 461.235 L1441.38 432.887 L1416.28 432.887 L1416.28 432.887  Z" fill="#000000" fill-rule="evenodd" fill-opacity="0"/>
<polyline clip-path="url(#clip805)" style="stroke:#808080; stroke-linecap:round; stroke-linejoin:round; stroke-width:4; stroke-opacity:1; fill:none" points="1416.28,432.887 1416.28,461.235 1441.38,461.235 1441.38,432.887 1416.28,432.887 "/>
<circle clip-path="url(#clip805)" style="fill:#009af9; stroke:none; fill-opacity:0" cx="1209.2" cy="333.594" r="2"/>
<circle clip-path="url(#clip805)" style="fill:#009af9; stroke:none; fill-opacity:0" cx="1240.57" cy="331.623" r="2"/>
<circle clip-path="url(#clip805)" style="fill:#009af9; stroke:none; fill-opacity:0" cx="1271.95" cy="329.539" r="2"/>
<circle clip-path="url(#clip805)" style="fill:#009af9; stroke:none; fill-opacity:0" cx="1303.32" cy="325.379" r="2"/>
<circle clip-path="url(#clip805)" style="fill:#009af9; stroke:none; fill-opacity:0" cx="1334.7" cy="301.564" r="2"/>
<circle clip-path="url(#clip805)" style="fill:#009af9; stroke:none; fill-opacity:0" cx="1366.08" cy="225.145" r="2"/>
<circle clip-path="url(#clip805)" style="fill:#009af9; stroke:none; fill-opacity:0" cx="1397.45" cy="307.068" r="2"/>
<circle clip-path="url(#clip805)" style="fill:#009af9; stroke:none; fill-opacity:0" cx="1428.83" cy="432.887" r="2"/>
<polyline clip-path="url(#clip805)" style="stroke:#808080; stroke-linecap:round; stroke-linejoin:round; stroke-width:4; stroke-opacity:1; fill:none" points="1209.2,335.928 1209.2,331.26 "/>
<polyline clip-path="url(#clip805)" style="stroke:#808080; stroke-linecap:round; stroke-linejoin:round; stroke-width:4; stroke-opacity:1; fill:none" points="1240.57,334.039 1240.57,329.206 "/>
<polyline clip-path="url(#clip805)" style="stroke:#808080; stroke-linecap:round; stroke-linejoin:round; stroke-width:4; stroke-opacity:1; fill:none" points="1271.95,331.908 1271.95,327.169 "/>
<polyline clip-path="url(#clip805)" style="stroke:#808080; stroke-linecap:round; stroke-linejoin:round; stroke-width:4; stroke-opacity:1; fill:none" points="1303.32,327.614 1303.32,323.144 "/>
<polyline clip-path="url(#clip805)" style="stroke:#808080; stroke-linecap:round; stroke-linejoin:round; stroke-width:4; stroke-opacity:1; fill:none" points="1334.7,304.358 1334.7,298.77 "/>
<polyline clip-path="url(#clip805)" style="stroke:#808080; stroke-linecap:round; stroke-linejoin:round; stroke-width:4; stroke-opacity:1; fill:none" points="1366.08,227.978 1366.08,222.312 "/>
<polyline clip-path="url(#clip805)" style="stroke:#808080; stroke-linecap:round; stroke-linejoin:round; stroke-width:4; stroke-opacity:1; fill:none" points="1397.45,314.624 1397.45,299.513 "/>
<polyline clip-path="url(#clip805)" style="stroke:#808080; stroke-linecap:round; stroke-linejoin:round; stroke-width:4; stroke-opacity:1; fill:none" points="1428.83,435.162 1428.83,430.611 "/>
<circle clip-path="url(#clip805)" style="fill:#808080; stroke:none; fill-opacity:1" cx="1209.2" cy="335.928" r="2"/>
<circle clip-path="url(#clip805)" style="fill:#808080; stroke:none; fill-opacity:1" cx="1209.2" cy="331.26" r="2"/>
<circle clip-path="url(#clip805)" style="fill:#808080; stroke:none; fill-opacity:1" cx="1240.57" cy="334.039" r="2"/>
<circle clip-path="url(#clip805)" style="fill:#808080; stroke:none; fill-opacity:1" cx="1240.57" cy="329.206" r="2"/>
<circle clip-path="url(#clip805)" style="fill:#808080; stroke:none; fill-opacity:1" cx="1271.95" cy="331.908" r="2"/>
<circle clip-path="url(#clip805)" style="fill:#808080; stroke:none; fill-opacity:1" cx="1271.95" cy="327.169" r="2"/>
<circle clip-path="url(#clip805)" style="fill:#808080; stroke:none; fill-opacity:1" cx="1303.32" cy="327.614" r="2"/>
<circle clip-path="url(#clip805)" style="fill:#808080; stroke:none; fill-opacity:1" cx="1303.32" cy="323.144" r="2"/>
<circle clip-path="url(#clip805)" style="fill:#808080; stroke:none; fill-opacity:1" cx="1334.7" cy="304.358" r="2"/>
<circle clip-path="url(#clip805)" style="fill:#808080; stroke:none; fill-opacity:1" cx="1334.7" cy="298.77" r="2"/>
<circle clip-path="url(#clip805)" style="fill:#808080; stroke:none; fill-opacity:1" cx="1366.08" cy="227.978" r="2"/>
<circle clip-path="url(#clip805)" style="fill:#808080; stroke:none; fill-opacity:1" cx="1366.08" cy="222.312" r="2"/>
<circle clip-path="url(#clip805)" style="fill:#808080; stroke:none; fill-opacity:1" cx="1397.45" cy="314.624" r="2"/>
<circle clip-path="url(#clip805)" style="fill:#808080; stroke:none; fill-opacity:1" cx="1397.45" cy="299.513" r="2"/>
<circle clip-path="url(#clip805)" style="fill:#808080; stroke:none; fill-opacity:1" cx="1428.83" cy="435.162" r="2"/>
<circle clip-path="url(#clip805)" style="fill:#808080; stroke:none; fill-opacity:1" cx="1428.83" cy="430.611" r="2"/>
<polyline clip-path="url(#clip805)" style="stroke:#ff0000; stroke-linecap:round; stroke-linejoin:round; stroke-width:4; stroke-opacity:1; fill:none" stroke-dasharray="16, 10" points="1366.08,461.235 1366.08,277.388 "/>
<polyline clip-path="url(#clip805)" style="stroke:#ff0000; stroke-linecap:round; stroke-linejoin:round; stroke-width:4; stroke-opacity:1; fill:none" stroke-dasharray="16, 10" points="1193.51,277.388 1366.08,277.388 "/>
<path clip-path="url(#clip800)" d="M1245.31 196.275 L1447.34 196.275 L1447.34 83.1006 L1245.31 83.1006  Z" fill="#000000" fill-rule="evenodd" fill-opacity="0"/>
<polyline clip-path="url(#clip800)" style="stroke:#000000; stroke-linecap:round; stroke-linejoin:round; stroke-width:4; stroke-opacity:0; fill:none" points="1245.31,196.275 1447.34,196.275 1447.34,83.1006 1245.31,83.1006 1245.31,196.275 "/>
<polyline clip-path="url(#clip800)" style="stroke:#ff0000; stroke-linecap:round; stroke-linejoin:round; stroke-width:4.5; stroke-opacity:1; fill:none" stroke-dasharray="18, 11" points="1248.37,139.688 1266.7,139.688 "/>
<g clip-path="url(#clip800)">
<text style="fill:#000000; fill-opacity:1; font-family:Arial,Helvetica Neue,Helvetica,sans-serif; font-size:53px; text-anchor:start;" transform="rotate(0, 1269.76, 159.188)" x="1269.76" y="159.188">optimal</text>
</g>
<path clip-path="url(#clip800)" d="M167.595 456.412 L1456.5 456.412 L1456.5 456.021 L167.595 456.021  Z" fill="#ffffff" fill-rule="evenodd" fill-opacity="1"/>
<defs>
  <clipPath id="clip806">
    <rect x="167" y="456" width="1290" height="1"/>
  </clipPath>
</defs>
<g clip-path="url(#clip800)">
<text style="fill:#000000; fill-opacity:1; font-family:Arial,Helvetica Neue,Helvetica,sans-serif; font-size:53px; text-anchor:middle;" transform="rotate(0, 812.05, 577.819)" x="812.05" y="577.819">Distance to goal</text>
</g>
</svg>
